<svg xmlns="http://www.w3.org/2000/svg" width="900" height="500" viewBox="0 0 900 500" role="img">
<title>Paper-scale error falls through n=1000, d=100</title>
<rect width="900" height="500" fill="#ffffff" rx="18"/>
<text x="52" y="52" font-family="Inter,Arial,sans-serif" font-size="25" font-weight="700" fill="#172033">Paper-scale error falls through n=1000, d=100</text>
<text x="52" y="78" font-family="Inter,Arial,sans-serif" font-size="14" fill="#64748b">Two stationary Markov chains; six deterministic replicates per task</text>
<line x1="105" y1="400" x2="725" y2="400" stroke="#172033"/>
<line x1="105" y1="115" x2="105" y2="400" stroke="#172033"/>
<line x1="105" y1="400.0" x2="725" y2="400.0" stroke="#dbe3ee"/>
<text x="93.0" y="405.0" text-anchor="end" font-family="Inter,Arial,sans-serif" font-size="13" font-weight="400" fill="#64748b">0.00</text>
<line x1="105" y1="328.8" x2="725" y2="328.8" stroke="#dbe3ee"/>
<text x="93.0" y="333.8" text-anchor="end" font-family="Inter,Arial,sans-serif" font-size="13" font-weight="400" fill="#64748b">0.15</text>
<line x1="105" y1="257.5" x2="725" y2="257.5" stroke="#dbe3ee"/>
<text x="93.0" y="262.5" text-anchor="end" font-family="Inter,Arial,sans-serif" font-size="13" font-weight="400" fill="#64748b">0.30</text>
<line x1="105" y1="186.2" x2="725" y2="186.2" stroke="#dbe3ee"/>
<text x="93.0" y="191.2" text-anchor="end" font-family="Inter,Arial,sans-serif" font-size="13" font-weight="400" fill="#64748b">0.45</text>
<line x1="105" y1="115.0" x2="725" y2="115.0" stroke="#dbe3ee"/>
<text x="93.0" y="120.0" text-anchor="end" font-family="Inter,Arial,sans-serif" font-size="13" font-weight="400" fill="#64748b">0.60</text>
<text x="105.0" y="428.0" text-anchor="middle" font-family="Inter,Arial,sans-serif" font-size="13" font-weight="400" fill="#64748b">15k</text>
<text x="415.0" y="428.0" text-anchor="middle" font-family="Inter,Arial,sans-serif" font-size="13" font-weight="400" fill="#64748b">50k</text>
<text x="725.0" y="428.0" text-anchor="middle" font-family="Inter,Arial,sans-serif" font-size="13" font-weight="400" fill="#64748b">150k</text>
<polyline points="105.0,298.1 415.0,320.8 725.0,371.0" fill="none" stroke="#2563eb" stroke-width="4" stroke-linecap="round" stroke-linejoin="round"/>
<circle cx="105.0" cy="298.1" r="6" fill="#2563eb" stroke="white" stroke-width="2"/>
<circle cx="415.0" cy="320.8" r="6" fill="#2563eb" stroke="white" stroke-width="2"/>
<circle cx="725.0" cy="371.0" r="6" fill="#2563eb" stroke="white" stroke-width="2"/>
<text x="720.0" y="383.0" text-anchor="end" font-family="Inter,Arial,sans-serif" font-size="13" font-weight="700" fill="#2563eb">n=50, d=5</text>
<polyline points="105.0,317.5 415.0,344.1 725.0,359.3" fill="none" stroke="#0f9f8f" stroke-width="4" stroke-linecap="round" stroke-linejoin="round"/>
<circle cx="105.0" cy="317.5" r="6" fill="#0f9f8f" stroke="white" stroke-width="2"/>
<circle cx="415.0" cy="344.1" r="6" fill="#0f9f8f" stroke="white" stroke-width="2"/>
<circle cx="725.0" cy="359.3" r="6" fill="#0f9f8f" stroke="white" stroke-width="2"/>
<text x="720.0" y="351.3" text-anchor="end" font-family="Inter,Arial,sans-serif" font-size="13" font-weight="700" fill="#0f9f8f">n=100, d=20</text>
<polyline points="105.0,143.7 415.0,180.2 725.0,208.7" fill="none" stroke="#d97706" stroke-width="4" stroke-linecap="round" stroke-linejoin="round"/>
<circle cx="105.0" cy="143.7" r="6" fill="#d97706" stroke="white" stroke-width="2"/>
<circle cx="415.0" cy="180.2" r="6" fill="#d97706" stroke="white" stroke-width="2"/>
<circle cx="725.0" cy="208.7" r="6" fill="#d97706" stroke="white" stroke-width="2"/>
<text x="720.0" y="200.7" text-anchor="end" font-family="Inter,Arial,sans-serif" font-size="13" font-weight="700" fill="#d97706">n=1000, d=100</text>
<text x="72.0" y="108.0" text-anchor="start" font-family="Inter,Arial,sans-serif" font-size="13" font-weight="400" fill="#64748b">value RMSE</text>
<text x="455.0" y="465.0" text-anchor="middle" font-family="Inter,Arial,sans-serif" font-size="13" font-weight="400" fill="#64748b">updates</text>
</svg>
